# xmcd CD database file
#
# Track frame offsets:
#	150
#	29756
#	63255
#	88604
#	119063
#	147363
#	169371
#	197446
#	217447
#	244455
#	279965
#	305134
#
# Disc length: 4424 seconds
#
# Revision: 0
# Processed by: cddbd v1.5.2PL0 Copyright (c) Steve Scherf et al.
# Submitted via: CDex 2.08
#
DISCID=c511460c
DTITLE=French Preservation Hall New Orleans Jazz Band - The 1965 jazz crusade revisited
DYEAR=2018
DGENRE=Jazz
TTITLE0=Moonlight and roses
TTITLE1=Hindustan
TTITLE2=Just as i am
TTITLE3=French preservation hall boogie
TTITLE4=Girl of my dreams
TTITLE5=St Louis blues
TTITLE6=My love
TTITLE7=Mary wore a golden chain
TTITLE8=Somebody stole my gal
TTITLE9=Old rugged cross
TTITLE10=When you and i were young maggie
TTITLE11=His eyes is on a sparrow
EXTD=YEAR: 2018
EXTT0=
EXTT1=
EXTT2=
EXTT3=
EXTT4=
EXTT5=
EXTT6=
EXTT7=
EXTT8=
EXTT9=
EXTT10=
EXTT11=
PLAYORDER=
